<svg width="22" height="19" viewBox="0 0 22 19" fill="none" xmlns="http://www.w3.org/2000/svg">
<g id="user">
<path id="union-1" fill-rule="evenodd" clip-rule="evenodd" d="M10.9268 3.21425C9.04098 3.21425 7.51219 4.62136 7.51219 6.35711C7.51219 8.09286 9.04098 9.49997 10.9268 9.49997C12.8127 9.49997 14.3415 8.09286 14.3415 6.35711C14.3415 4.62136 12.8127 3.21425 10.9268 3.21425ZM14.035 10.1045C15.2591 9.24302 16.0488 7.88494 16.0488 6.35711C16.0488 3.75348 13.7556 1.64282 10.9268 1.64282C8.09805 1.64282 5.80488 3.75348 5.80488 6.35711C5.80488 7.88494 6.59452 9.24302 7.81867 10.1045C6.96033 10.4539 6.17067 10.9485 5.49418 11.5711C4.9718 12.0519 4.53237 12.5949 4.18444 13.1811C3.54239 14.2629 3.80423 15.3659 4.52728 16.1458C5.22336 16.8967 6.33843 17.3571 7.51219 17.3571H14.3415C15.5152 17.3571 16.6303 16.8967 17.3264 16.1458C18.0494 15.3659 18.3113 14.2629 17.6692 13.1811C17.3213 12.5949 16.8819 12.0519 16.3595 11.5711C15.683 10.9485 14.8933 10.4539 14.035 10.1045ZM10.9268 11.0714C9.342 11.0714 7.82208 11.6509 6.70143 12.6823C6.29509 13.0563 5.95336 13.4786 5.68277 13.9345C5.42072 14.376 5.50525 14.7798 5.82605 15.1258C6.17383 15.501 6.8001 15.7857 7.51219 15.7857H14.3415C15.0536 15.7857 15.6798 15.501 16.0276 15.1258C16.3484 14.7798 16.4329 14.376 16.1709 13.9345C15.9003 13.4786 15.5586 13.0563 15.1522 12.6823C14.0316 11.6509 12.5117 11.0714 10.9268 11.0714Z" fill="black"/>
</g>
</svg>
